<svg xmlns="http://www.w3.org/2000/svg" width="220" height="46" viewBox="0 0 220 46" role="img" aria-labelledby="title">
  <title id="title">RK Hospitals</title>
  <defs>
    <linearGradient id="rkBlue" x1="0" y1="0" x2="1" y2="1">
      <stop offset="0" stop-color="#001a78"/>
      <stop offset="1" stop-color="#001154"/>
    </linearGradient>
  </defs>
  <!-- Icon -->
  <g transform="translate(0,0)">
    <rect x="0" y="0" width="46" height="46" rx="12" fill="url(#rkBlue)"/>
    <path d="M23 9c1.1 0 2 .9 2 2v4.2c0 .8.7 1.5 1.5 1.5H31c1.1 0 2 .9 2 2s-.9 2-2 2h-4.5c-.8 0-1.5.7-1.5 1.5V29c0 1.1-.9 2-2 2s-2-.9-2-2v-4.8c0-.8-.7-1.5-1.5-1.5H9.9c-1.1 0-2-.9-2-2s.9-2 2-2h9.6c.8 0 1.5-.7 1.5-1.5V11c0-1.1.9-2 2-2z" fill="#ffffff"/>
  </g>
  <!-- Wordmark -->
  <g transform="translate(54,32)">
    <text x="0" y="0" font-family="Segoe UI, Roboto, Arial, sans-serif" font-size="24" font-weight="700" fill="#001154">RK</text>
    <text x="44" y="0" font-family="Segoe UI, Roboto, Arial, sans-serif" font-size="24" font-weight="700" fill="#001154">Hospitals</text>
  </g>
</svg>

