<svg xmlns="http://www.w3.org/2000/svg" width="46" height="46" viewBox="0 0 46 46" role="img" aria-label="RK Hospitals favicon">
  <defs>
    <linearGradient id="rkBlueFa" x1="0" y1="0" x2="1" y2="1">
      <stop offset="0" stop-color="#001a78"/>
      <stop offset="1" stop-color="#001154"/>
    </linearGradient>
  </defs>
  <rect x="0" y="0" width="46" height="46" rx="12" fill="url(#rkBlueFa)"/>
  <path d="M23 9c1.1 0 2 .9 2 2v4.2c0 .8.7 1.5 1.5 1.5H31c1.1 0 2 .9 2 2s-.9 2-2 2h-4.5c-.8 0-1.5.7-1.5 1.5V29c0 1.1-.9 2-2 2s-2-.9-2-2v-4.8c0-.8-.7-1.5-1.5-1.5H10c-1.1 0-2-.9-2-2s.9-2 2-2h9.5c.8 0 1.5-.7 1.5-1.5V11c0-1.1.9-2 2-2z" fill="#ffffff"/>
</svg>
